<svg width="293" height="62" viewBox="0 0 293 62" fill="none" xmlns="http://www.w3.org/2000/svg">
<path d="M45.96 45C45.6667 45 45.4267 44.9067 45.24 44.72C45.0533 44.5333 44.96 44.2933 44.96 44V18C44.96 17.7067 45.0533 17.4667 45.24 17.28C45.4267 17.0933 45.6667 17 45.96 17H63.8C64.0933 17 64.3333 17.0933 64.52 17.28C64.7067 17.4667 64.8 17.7067 64.8 18V21.4C64.8 21.6933 64.7067 21.9333 64.52 22.12C64.3333 22.3067 64.0933 22.4 63.8 22.4H51.2V29.16H63C63.2933 29.16 63.5333 29.2533 63.72 29.44C63.9067 29.6267 64 29.8667 64 30.16V33.56C64 33.8267 63.9067 34.0533 63.72 34.24C63.5333 34.4267 63.2933 34.52 63 34.52H51.2V44C51.2 44.2933 51.1067 44.5333 50.92 44.72C50.7333 44.9067 50.4933 45 50.2 45H45.96ZM69.855 45C69.5883 45 69.3617 44.9067 69.175 44.72C68.9883 44.5333 68.895 44.2933 68.895 44V25.2C68.895 24.9067 68.9883 24.6667 69.175 24.48C69.3617 24.2933 69.5883 24.2 69.855 24.2H73.855C74.1483 24.2 74.3883 24.2933 74.575 24.48C74.7617 24.6667 74.855 24.9067 74.855 25.2V44C74.855 44.2933 74.7617 44.5333 74.575 44.72C74.3883 44.9067 74.1483 45 73.855 45H69.855ZM69.735 21C69.4683 21 69.2417 20.9067 69.055 20.72C68.8683 20.5333 68.775 20.2933 68.775 20V16.8C68.775 16.5067 68.8683 16.2667 69.055 16.08C69.2417 15.8667 69.4683 15.76 69.735 15.76H73.935C74.2283 15.76 74.4683 15.8667 74.655 16.08C74.8683 16.2667 74.975 16.5067 74.975 16.8V20C74.975 20.2933 74.8683 20.5333 74.655 20.72C74.4683 20.9067 74.2283 21 73.935 21H69.735ZM78.9916 45C78.7516 45 78.5382 44.92 78.3516 44.76C78.1916 44.5733 78.1116 44.36 78.1116 44.12C78.1116 44.04 78.1249 43.9467 78.1516 43.84C78.2049 43.7067 78.2716 43.5867 78.3516 43.48L85.1116 34.32L78.9116 25.72C78.8316 25.6133 78.7649 25.5067 78.7116 25.4C78.6849 25.2933 78.6716 25.1867 78.6716 25.08C78.6716 24.84 78.7516 24.64 78.9116 24.48C79.0982 24.2933 79.3116 24.2 79.5516 24.2H83.7116C84.0316 24.2 84.2716 24.28 84.4316 24.44C84.6182 24.6 84.7516 24.7467 84.8316 24.88L88.9516 30.48L93.0716 24.92C93.1782 24.7867 93.3116 24.64 93.4716 24.48C93.6316 24.2933 93.8849 24.2 94.2316 24.2H98.1916C98.4316 24.2 98.6316 24.2933 98.7916 24.48C98.9782 24.64 99.0716 24.84 99.0716 25.08C99.0716 25.1867 99.0582 25.2933 99.0316 25.4C99.0049 25.5067 98.9382 25.6133 98.8316 25.72L92.5116 34.36L99.3516 43.48C99.4316 43.5867 99.4849 43.6933 99.5116 43.8C99.5649 43.9067 99.5916 44.0133 99.5916 44.12C99.5916 44.36 99.4982 44.5733 99.3116 44.76C99.1516 44.92 98.9516 45 98.7116 45H94.3516C94.0582 45 93.8316 44.9333 93.6716 44.8C93.5116 44.64 93.3782 44.4933 93.2716 44.36L88.8316 38.44L84.3116 44.36C84.2316 44.4667 84.1116 44.6 83.9516 44.76C83.7916 44.92 83.5516 45 83.2316 45H78.9916ZM104.319 45C104.053 45 103.813 44.9067 103.599 44.72C103.413 44.5333 103.319 44.2933 103.319 44V18C103.319 17.7067 103.413 17.4667 103.599 17.28C103.813 17.0933 104.053 17 104.319 17H108.039C108.439 17 108.733 17.1067 108.919 17.32C109.133 17.5333 109.279 17.6933 109.359 17.8L116.719 31.36L124.159 17.8C124.213 17.6933 124.333 17.5333 124.519 17.32C124.733 17.1067 125.039 17 125.439 17H129.159C129.453 17 129.693 17.0933 129.879 17.28C130.066 17.4667 130.159 17.7067 130.159 18V44C130.159 44.2933 130.066 44.5333 129.879 44.72C129.693 44.9067 129.453 45 129.159 45H125.079C124.813 45 124.586 44.9067 124.399 44.72C124.213 44.5333 124.119 44.2933 124.119 44V27.84L119.039 37.36C118.906 37.6 118.733 37.8133 118.519 38C118.306 38.1867 118.026 38.28 117.679 38.28H115.799C115.453 38.28 115.173 38.1867 114.959 38C114.746 37.8133 114.573 37.6 114.439 37.36L109.359 27.84V44C109.359 44.2933 109.266 44.5333 109.079 44.72C108.893 44.9067 108.666 45 108.399 45H104.319ZM139.453 52.6C139.239 52.6 139.039 52.52 138.853 52.36C138.693 52.2 138.613 52 138.613 51.76C138.613 51.7067 138.626 51.6267 138.653 51.52C138.679 51.44 138.719 51.3333 138.773 51.2L141.893 43.72L134.213 25.6C134.133 25.3867 134.093 25.2133 134.093 25.08C134.119 24.84 134.213 24.64 134.373 24.48C134.533 24.2933 134.733 24.2 134.973 24.2H138.853C139.199 24.2 139.453 24.2933 139.613 24.48C139.773 24.64 139.893 24.8133 139.973 25L144.933 37.4L150.013 25C150.119 24.7867 150.253 24.6 150.413 24.44C150.573 24.28 150.826 24.2 151.173 24.2H154.973C155.213 24.2 155.413 24.2933 155.573 24.48C155.759 24.64 155.853 24.8267 155.853 25.04C155.853 25.1733 155.799 25.36 155.693 25.6L144.373 51.8C144.293 52.0133 144.159 52.2 143.973 52.36C143.813 52.52 143.559 52.6 143.213 52.6H139.453ZM170.611 45.4C168.105 45.4 165.971 44.9867 164.211 44.16C162.478 43.3067 161.131 42.08 160.171 40.48C159.211 38.8533 158.678 36.88 158.571 34.56C158.545 33.4667 158.531 32.2933 158.531 31.04C158.531 29.7867 158.545 28.5867 158.571 27.44C158.678 25.1467 159.211 23.2 160.171 21.6C161.158 19.9733 162.531 18.7333 164.291 17.88C166.051 17.0267 168.158 16.6 170.611 16.6C172.398 16.6 174.025 16.8267 175.491 17.28C176.958 17.7333 178.225 18.3867 179.291 19.24C180.358 20.0933 181.185 21.0933 181.771 22.24C182.358 23.3867 182.678 24.6667 182.731 26.08C182.731 26.32 182.638 26.52 182.451 26.68C182.291 26.84 182.091 26.92 181.851 26.92H177.291C176.971 26.92 176.718 26.84 176.531 26.68C176.345 26.52 176.198 26.2533 176.091 25.88C175.691 24.3067 175.025 23.2267 174.091 22.64C173.158 22.0533 171.998 21.76 170.611 21.76C168.958 21.76 167.651 22.2133 166.691 23.12C165.731 24.0267 165.211 25.5333 165.131 27.64C165.051 29.8267 165.051 32.0667 165.131 34.36C165.211 36.4667 165.731 37.9733 166.691 38.88C167.651 39.7867 168.958 40.24 170.611 40.24C171.998 40.24 173.158 39.9467 174.091 39.36C175.051 38.7467 175.718 37.6667 176.091 36.12C176.198 35.72 176.345 35.4533 176.531 35.32C176.718 35.16 176.971 35.08 177.291 35.08H181.851C182.091 35.08 182.291 35.16 182.451 35.32C182.638 35.48 182.731 35.68 182.731 35.92C182.678 37.3333 182.358 38.6133 181.771 39.76C181.185 40.9067 180.358 41.9067 179.291 42.76C178.225 43.6133 176.958 44.2667 175.491 44.72C174.025 45.1733 172.398 45.4 170.611 45.4ZM187.746 45C187.479 45 187.252 44.9067 187.066 44.72C186.879 44.5333 186.786 44.2933 186.786 44V25.2C186.786 24.9067 186.879 24.6667 187.066 24.48C187.252 24.2933 187.479 24.2 187.746 24.2H191.746C192.039 24.2 192.279 24.2933 192.466 24.48C192.652 24.6667 192.746 24.9067 192.746 25.2V44C192.746 44.2933 192.652 44.5333 192.466 44.72C192.279 44.9067 192.039 45 191.746 45H187.746ZM187.626 21C187.359 21 187.132 20.9067 186.946 20.72C186.759 20.5333 186.666 20.2933 186.666 20V16.8C186.666 16.5067 186.759 16.2667 186.946 16.08C187.132 15.8667 187.359 15.76 187.626 15.76H191.826C192.119 15.76 192.359 15.8667 192.546 16.08C192.759 16.2667 192.866 16.5067 192.866 16.8V20C192.866 20.2933 192.759 20.5333 192.546 20.72C192.359 20.9067 192.119 21 191.826 21H187.626ZM207.762 45C206.109 45 204.696 44.7333 203.522 44.2C202.349 43.64 201.456 42.7867 200.842 41.64C200.256 40.4933 199.962 39.0533 199.962 37.32V28.92H196.842C196.549 28.92 196.309 28.8267 196.122 28.64C195.936 28.4533 195.842 28.2133 195.842 27.92V25.2C195.842 24.9067 195.936 24.6667 196.122 24.48C196.309 24.2933 196.549 24.2 196.842 24.2H199.962V17.6C199.962 17.3067 200.056 17.0667 200.242 16.88C200.456 16.6933 200.696 16.6 200.962 16.6H204.882C205.176 16.6 205.416 16.6933 205.602 16.88C205.789 17.0667 205.882 17.3067 205.882 17.6V24.2H210.882C211.149 24.2 211.376 24.2933 211.562 24.48C211.749 24.6667 211.842 24.9067 211.842 25.2V27.92C211.842 28.2133 211.749 28.4533 211.562 28.64C211.376 28.8267 211.149 28.92 210.882 28.92H205.882V36.84C205.882 37.8533 206.056 38.6533 206.402 39.24C206.776 39.8 207.416 40.08 208.322 40.08H211.242C211.509 40.08 211.736 40.1733 211.922 40.36C212.109 40.5467 212.202 40.7733 212.202 41.04V44C212.202 44.2933 212.109 44.5333 211.922 44.72C211.736 44.9067 211.509 45 211.242 45H207.762ZM219.492 52.6C219.279 52.6 219.079 52.52 218.892 52.36C218.732 52.2 218.652 52 218.652 51.76C218.652 51.7067 218.665 51.6267 218.692 51.52C218.719 51.44 218.759 51.3333 218.812 51.2L221.932 43.72L214.252 25.6C214.172 25.3867 214.132 25.2133 214.132 25.08C214.159 24.84 214.252 24.64 214.412 24.48C214.572 24.2933 214.772 24.2 215.012 24.2H218.892C219.239 24.2 219.492 24.2933 219.652 24.48C219.812 24.64 219.932 24.8133 220.012 25L224.972 37.4L230.052 25C230.159 24.7867 230.292 24.6 230.452 24.44C230.612 24.28 230.865 24.2 231.212 24.2H235.012C235.252 24.2 235.452 24.2933 235.612 24.48C235.799 24.64 235.892 24.8267 235.892 25.04C235.892 25.1733 235.839 25.36 235.732 25.6L224.412 51.8C224.332 52.0133 224.199 52.2 224.012 52.36C223.852 52.52 223.599 52.6 223.252 52.6H219.492Z" fill="#060908"/>
<path d="M48.0231 3.86574H45.2633H43.2224H39.0077H32.9892H26.229H20.208H13.4471H5.7776H0.976938H0V45.1343H5.7776V25.8759H43.2224V45.1343H49V3.86574H48.0231ZM5.7776 20.6907V7.77081H11.6665L5.7776 20.6907ZM17.976 21.9707H11.9558L18.4282 7.7709H24.4483L17.976 21.9707ZM30.7564 21.9707H24.737L31.2094 7.7709H37.2279L30.7564 21.9707ZM43.2224 21.9707H37.5165L40.2925 15.8788L43.2224 9.45068V21.9707Z" fill="#060908"/>
</svg>
